<?xml version="1.0" standalone="no"?>
<!DOCTYPE svg PUBLIC "-//W3C//DTD SVG 20010904//EN"
 "http://www.w3.org/TR/2001/REC-SVG-20010904/DTD/svg10.dtd">
<svg version="1.0" xmlns="http://www.w3.org/2000/svg"
 width="522.000000pt" height="519.000000pt" viewBox="0 0 522.000000 519.000000"
 preserveAspectRatio="xMidYMid meet">

<g transform="translate(0.000000,519.000000) scale(0.100000,-0.100000)"
fill="#000000" stroke="none">
<path d="M2348 5179 c-1027 -108 -1894 -800 -2218 -1769 -42 -125 -85 -308
-107 -450 -25 -165 -25 -567 1 -735 87 -572 352 -1087 762 -1486 205 -198 412
-344 669 -470 196 -96 314 -139 509 -189 247 -62 354 -75 646 -75 292 0 399
13 646 75 195 50 313 93 509 189 257 126 464 272 669 470 351 341 592 759 709
1228 59 235 72 346 72 628 0 282 -13 393 -72 629 -155 621 -539 1164 -1078
1525 -356 239 -774 388 -1199 430 -124 12 -403 12 -518 0z m587 -355 c319 -47
650 -176 927 -361 159 -107 400 -315 383 -332 -6 -5 -35 -16 -65 -25 -30 -9
-76 -22 -102 -30 -54 -17 -44 -23 -200 104 -153 124 -337 233 -503 298 -144
57 -435 131 -568 144 -145 14 -415 -3 -581 -37 -210 -42 -469 -141 -639 -244
-294 -178 -585 -475 -748 -763 -183 -325 -258 -638 -246 -1028 7 -246 29 -366
112 -613 37 -108 67 -209 67 -225 0 -34 -18 -82 -32 -82 -5 0 -10 -6 -10 -13
0 -23 -37 -49 -58 -43 -25 8 -96 109 -131 188 -43 94 -117 332 -140 445 -58
283 -51 619 18 924 122 537 498 1049 1006 1370 147 94 246 143 401 202 177 67
452 124 684 141 91 6 319 -4 425 -20z m239 -505 c53 -18 106 -69 106 -103 0
-30 -37 -90 -68 -111 -10 -8 -62 -19 -113 -25 -270 -31 -533 -82 -752 -146
-15 -5 -17 -13 -13 -42 11 -68 -12 -891 -29 -1007 -44 -322 -128 -574 -251
-761 -51 -76 -173 -198 -252 -248 -156 -101 -301 -149 -451 -148 -214 0 -362
88 -446 263 -64 134 -69 337 -10 481 26 64 95 167 141 209 83 77 212 129 320
129 111 0 182 -49 191 -133 7 -62 -19 -86 -128 -121 -106 -35 -171 -76 -219
-140 -61 -81 -83 -147 -78 -233 6 -84 34 -137 96 -178 91 -60 203 -57 338 10
159 78 293 250 381 490 24 66 71 284 82 385 12 100 28 940 18 940 -3 0 -47
-14 -99 -30 -193 -63 -330 -150 -400 -252 l-40 -61 -54 6 c-64 7 -133 42 -152
77 -20 39 -10 122 22 170 27 41 112 109 213 171 80 48 262 118 448 173 254 75
424 126 505 152 73 23 179 47 370 84 107 21 259 20 324 -1z m472 -400 c44 -27
54 -62 25 -93 -36 -38 -131 -71 -421 -147 -151 -40 -306 -81 -345 -91 -153
-41 -230 -21 -230 58 0 56 32 73 226 118 211 49 340 84 514 140 150 49 174 50
231 15z m1113 -3 c34 -18 61 -62 61 -101 0 -60 -86 -165 -180 -218 -82 -46
-213 -94 -350 -127 -74 -17 -218 -60 -320 -93 l-185 -62 -12 -45 c-9 -29 -16
-179 -23 -440 -13 -524 -34 -734 -99 -998 -59 -238 -169 -440 -322 -594 -114
-114 -291 -219 -429 -255 -88 -22 -257 -22 -329 0 -251 78 -405 305 -371 547
20 140 124 306 238 378 69 45 178 82 254 89 60 5 71 3 111 -21 56 -32 87 -80
87 -134 0 -61 -22 -79 -127 -107 -137 -36 -219 -99 -264 -200 -54 -122 -9
-238 115 -296 70 -33 130 -37 219 -14 221 58 403 255 510 555 73 203 93 343
108 760 10 274 9 663 -1 673 -10 10 -235 -74 -340 -126 -65 -32 -124 -70 -155
-99 -46 -45 -53 -48 -102 -48 -58 0 -155 32 -184 61 -10 10 -21 30 -25 43 -15
61 91 188 205 245 79 40 289 112 533 182 115 33 241 73 281 88 40 16 93 34
117 41 118 31 586 228 669 282 81 52 241 69 310 34z m-3045 -655 c16 -17 15
-20 -9 -49 -29 -35 -59 -46 -275 -101 -85 -22 -180 -47 -210 -55 -68 -20 -113
-20 -150 -1 -34 18 -45 46 -30 75 15 28 44 38 164 56 55 8 169 32 251 53 174
45 234 50 259 22z m3020 -16 c8 -8 21 -39 30 -68 55 -190 70 -339 63 -617 -6
-184 -11 -236 -36 -360 -51 -249 -143 -471 -293 -710 -95 -151 -163 -235 -308
-380 -213 -213 -352 -315 -600 -438 -325 -162 -613 -233 -952 -233 -261 0
-473 34 -723 116 -199 65 -562 244 -607 299 -23 27 -23 69 0 88 48 42 401 132
448 114 10 -4 13 -2 8 6 -5 7 -1 9 13 6 14 -4 25 3 38 22 20 29 73 60 104 60
21 0 46 -26 56 -58 5 -17 -1 -29 -25 -53 -17 -18 -37 -29 -45 -25 -8 3 -17 1
-21 -5 -3 -6 -12 -8 -18 -6 -7 3 -18 -4 -24 -14 -7 -10 -21 -19 -31 -19 -11 0
-23 -5 -26 -10 -4 -6 -10 -8 -14 -5 -12 7 0 -47 17 -72 49 -76 288 -161 582
-208 124 -20 386 -20 510 0 197 32 461 115 623 196 349 177 677 499 875 859
131 240 209 539 219 845 6 186 -3 300 -43 505 -13 69 -24 128 -24 132 0 4 24
16 53 27 63 24 130 27 151 6z m-398 -233 c52 -67 -52 -152 -185 -152 -54 0
-105 28 -114 61 -8 31 46 84 104 99 113 31 168 29 195 -8z m-1193 -233 c41
-22 49 -61 21 -105 -24 -36 -56 -49 -211 -90 -178 -47 -278 -51 -318 -14 -19
18 -25 32 -23 54 5 47 42 66 159 82 111 16 172 30 259 63 64 24 83 25 113 10z
m1179 -151 c34 -24 43 -51 26 -85 -19 -40 -73 -62 -197 -80 -102 -15 -112 -15
-136 1 -48 31 -26 131 35 156 94 39 223 43 272 8z m-1096 -249 c68 -64 -21
-129 -234 -174 -105 -22 -173 -20 -200 5 -27 26 -28 50 -2 82 25 32 49 42 207
84 142 38 191 39 229 3z m1014 -198 c88 -63 12 -155 -139 -168 -62 -5 -69 -4
-99 22 -35 30 -42 66 -18 101 16 23 79 50 147 63 51 10 75 6 109 -18z m-2400
-646 c36 -19 60 -63 50 -90 -21 -53 -138 -110 -290 -140 -47 -9 -121 -27 -165
-40 -93 -28 -168 -40 -359 -55 -76 -7 -147 -13 -158 -15 -31 -6 -88 27 -85 50
3 23 98 115 142 138 39 19 151 42 306 62 139 18 400 67 469 89 58 19 56 19 90
1z"/>
</g>
</svg>
